<?xml version="1.0"?>
<svg width="24" height="24" xmlns="http://www.w3.org/2000/svg" xmlns:svg="http://www.w3.org/2000/svg" display="inherit" enable-background="new 0 0 24 24">
 <g class="layer">
  <title>Layer 1</title>
  <path d="m10,12l-2,0l0,2l-2,0l0,-2l-2,0l0,-2l2,0l0,-2l2,0l0,2l2,0l0,2zm7,0.5c0,-0.83 -0.67,-1.5 -1.5,-1.5s-1.5,0.67 -1.5,1.5s0.67,1.5 1.5,1.5s1.5,-0.67 1.5,-1.5zm3,-3c0,-0.83 -0.67,-1.5 -1.5,-1.5s-1.5,0.67 -1.5,1.5s0.67,1.5 1.5,1.5s1.5,-0.67 1.5,-1.5zm-3.03,-4.35l-4.5,2.53l-0.49,0.27l-0.49,-0.27l-4.5,-2.53l-3.99,2.24l0,6.43l8.98,5.04l8.98,-5.04l0,-6.43l-3.99,-2.24m0,-1.15l4.99,2.8l0,7.6l-9.98,5.6l-9.98,-5.6l0,-7.6l4.99,-2.8l4.99,2.8l4.99,-2.8z" fill="#ffffff" id="svg_1"/>
 </g>
</svg>