<?xml version="1.0"?>
<svg width="24" height="24" xmlns="http://www.w3.org/2000/svg" xmlns:svg="http://www.w3.org/2000/svg" display="inherit" enable-background="new 0 0 24 24">
 <g class="layer">
  <title>Layer 1</title>
  <path d="m15.36,9.96c0,1.09 -0.67,1.67 -1.31,2.24c-0.53,0.47 -1.03,0.9 -1.16,1.6l-0.04,0.2l-1.75,0l0.03,-0.28c0.14,-1.17 0.8,-1.76 1.47,-2.27c0.52,-0.4 1.01,-0.77 1.01,-1.49c0,-0.51 -0.23,-0.97 -0.63,-1.29c-0.4,-0.31 -0.92,-0.42 -1.42,-0.29c-0.59,0.15 -1.05,0.67 -1.19,1.34l-0.05,0.28l-1.75,0l0.06,-0.42c0.2,-1.4 1.15,-2.53 2.42,-2.87c1.05,-0.29 2.14,-0.08 2.98,0.57c0.85,0.64 1.33,1.62 1.33,2.68zm-3.36,8.04c0.55,0 1,-0.45 1,-1s-0.45,-1 -1,-1s-1,0.45 -1,1s0.45,1 1,1zm0,-15c-4.96,0 -9,4.04 -9,9s4.04,9 9,9s9,-4.04 9,-9s-4.04,-9 -9,-9m0,-1c5.52,0 10,4.48 10,10s-4.48,10 -10,10s-10,-4.48 -10,-10s4.48,-10 10,-10z" fill="#ffffff" id="svg_1"/>
 </g>
</svg>