<?xml version="1.0"?>
<svg width="24" height="24" xmlns="http://www.w3.org/2000/svg" xmlns:svg="http://www.w3.org/2000/svg" display="inherit" enable-background="new 0 0 24 24">
 <g class="layer">
  <title>Layer 1</title>
  <g id="svg_1">
   <path d="m14,12c0,1.1 -0.9,2 -2,2s-2,-0.9 -2,-2s0.9,-2 2,-2s2,0.9 2,2zm-5.52,-3.55l-0.71,-0.7c-1.09,1.08 -1.77,2.59 -1.77,4.25s0.68,3.17 1.77,4.25l0.71,-0.71c-0.91,-0.9 -1.48,-2.15 -1.48,-3.54s0.57,-2.64 1.48,-3.55zm7.75,-0.7l-0.71,0.71c0.91,0.9 1.48,2.15 1.48,3.54s-0.57,2.64 -1.48,3.55l0.71,0.71c1.09,-1.09 1.77,-2.6 1.77,-4.26s-0.68,-3.17 -1.77,-4.25zm-10.58,-2.12l-0.7,-0.71c-1.82,1.81 -2.95,4.32 -2.95,7.08s1.13,5.27 2.95,7.08l0.71,-0.71c-1.64,-1.63 -2.66,-3.88 -2.66,-6.37s1.02,-4.74 2.65,-6.37zm13.4,-0.71l-0.71,0.71c1.64,1.63 2.66,3.88 2.66,6.37s-1.02,4.74 -2.65,6.37l0.71,0.71c1.81,-1.81 2.94,-4.32 2.94,-7.08s-1.13,-5.27 -2.95,-7.08z" fill="#ffffff" id="svg_2"/>
  </g>
 </g>
</svg>