<?xml version="1.0"?>
<svg width="24" height="24" xmlns="http://www.w3.org/2000/svg" xmlns:svg="http://www.w3.org/2000/svg" display="inherit" enable-background="new 0 0 24 24">
 <g class="layer">
  <title>Layer 1</title>
  <path d="m12,9.5c1.38,0 2.5,1.12 2.5,2.5s-1.12,2.5 -2.5,2.5s-2.5,-1.12 -2.5,-2.5s1.12,-2.5 2.5,-2.5m0,-1c-1.93,0 -3.5,1.57 -3.5,3.5s1.57,3.5 3.5,3.5s3.5,-1.57 3.5,-3.5s-1.57,-3.5 -3.5,-3.5zm1.22,-5.5l0.55,2.2l0.13,0.51l0.5,0.18c0.61,0.23 1.19,0.56 1.72,0.98l0.4,0.32l0.5,-0.14l2.17,-0.62l1.22,2.11l-1.63,1.59l-0.37,0.36l0.08,0.51c0.05,0.32 0.08,0.64 0.08,0.98s-0.03,0.66 -0.08,0.98l-0.08,0.51l0.37,0.36l1.63,1.59l-1.22,2.11l-2.17,-0.62l-0.5,-0.14l-0.4,0.32c-0.53,0.43 -1.11,0.76 -1.72,0.98l-0.5,0.18l-0.13,0.51l-0.55,2.24l-2.44,0l-0.55,-2.2l-0.13,-0.51l-0.5,-0.18c-0.6,-0.23 -1.18,-0.56 -1.72,-0.99l-0.4,-0.32l-0.5,0.14l-2.17,0.62l-1.21,-2.12l1.63,-1.59l0.37,-0.36l-0.08,-0.51c-0.05,-0.32 -0.08,-0.65 -0.08,-0.98s0.03,-0.66 0.08,-0.98l0.08,-0.51l-0.37,-0.36l-1.63,-1.59l1.22,-2.11l2.17,0.62l0.5,0.14l0.4,-0.32c0.53,-0.44 1.11,-0.77 1.72,-0.99l0.5,-0.18l0.13,-0.51l0.54,-2.21l2.44,0m0.78,-1l-4,0l-0.74,2.96c-0.73,0.27 -1.4,0.66 -2,1.14l-2.92,-0.83l-2,3.46l2.19,2.13c-0.06,0.37 -0.09,0.75 -0.09,1.14s0.03,0.77 0.09,1.14l-2.19,2.13l2,3.46l2.92,-0.83c0.6,0.48 1.27,0.87 2,1.14l0.74,2.96l4,0l0.74,-2.96c0.73,-0.27 1.4,-0.66 2,-1.14l2.92,0.83l2,-3.46l-2.19,-2.13c0.06,-0.37 0.09,-0.75 0.09,-1.14s-0.03,-0.77 -0.09,-1.14l2.19,-2.13l-2,-3.46l-2.92,0.83c-0.6,-0.48 -1.27,-0.87 -2,-1.14l-0.74,-2.96z" fill="#ffffff" id="svg_1"/>
 </g>
</svg>