<?xml version="1.0"?>
<svg width="24" height="24" xmlns="http://www.w3.org/2000/svg" xmlns:svg="http://www.w3.org/2000/svg" xmlns:xlink="http://www.w3.org/1999/xlink" display="inherit" enable-background="new 0 0 24 24">
 <g class="layer">
  <title>Layer 1</title>
  <use fill="#ffffff" id="svg_4" transform="matrix(1.01418 0 0 0.893946 -5.50567 -5.13648)" x="4.43" xlink:href="#svg_3" y="7.5"/>
 </g>
 <defs>
  <symbol display="inherit" height="100%" id="svg_3" viewBox="0 0 24 24" width="100%" xmlns="http://www.w3.org/2000/svg">
   <path d="m10,14.65l0,-5.3l5,2.65l-5,2.65zm7.77,-4.33l-1.2,-0.5l1.43,-0.76c1.84,-0.96 2.53,-3.23 1.56,-5.06s-3.24,-2.53 -5.07,-1.56l-8.49,4.5c-1.29,0.68 -2.07,2.04 -2,3.49c0.07,1.42 0.93,2.67 2.22,3.25c0.03,0.01 1.2,0.5 1.2,0.5l-1.42,0.75c-1.83,0.97 -2.53,3.24 -1.56,5.07c0.97,1.83 3.24,2.53 5.07,1.56l8.5,-4.5c1.29,-0.68 2.06,-2.04 1.99,-3.49c-0.07,-1.42 -0.94,-2.68 -2.23,-3.25zm-0.23,5.86l-8.5,4.5c-1.34,0.71 -3.01,0.2 -3.72,-1.14c-0.71,-1.34 -0.2,-3.01 1.14,-3.72l2.04,-1.08l0,-1.21l-0.69,-0.28l-1.11,-0.46c-0.99,-0.41 -1.65,-1.35 -1.7,-2.41c-0.05,-1.06 0.52,-2.06 1.46,-2.56l8.5,-4.5c1.34,-0.71 3.01,-0.2 3.72,1.14c0.71,1.34 0.2,3.01 -1.14,3.72l-2.04,1.08l0,1.21l1.8,0.74c0.99,0.41 1.65,1.35 1.7,2.41c0.05,1.06 -0.52,2.06 -1.46,2.56z" id="svg_1"/>
  </symbol>
 </defs>
</svg>