<?xml version="1.0"?>
<svg width="24" height="24" xmlns="http://www.w3.org/2000/svg" xmlns:svg="http://www.w3.org/2000/svg" display="inherit" enable-background="new 0 0 24 24">
 <g class="layer">
  <title>Layer 1</title>
  <path d="m16,21l-2.28,0c-0.35,0.6 -0.98,1 -1.72,1s-1.38,-0.4 -1.72,-1l-2.28,0l0,-1l8,0l0,1zm4,-11c0,2.96 -1.61,5.54 -4,6.92l0,2.08l-8,0l0,-2.08c-2.39,-1.38 -4,-3.96 -4,-6.92c0,-4.42 3.58,-8 8,-8s8,3.58 8,8zm-5,8l0,-1.66l0.5,-0.29c2.16,-1.25 3.5,-3.57 3.5,-6.05c0,-3.86 -3.14,-7 -7,-7s-7,3.14 -7,7c0,2.48 1.34,4.8 3.5,6.06l0.5,0.28l0,1.66l6,0z" fill="#ffffff" id="svg_1"/>
 </g>
</svg>