<?xml version="1.0"?>
<svg width="24" height="24" xmlns="http://www.w3.org/2000/svg" xmlns:svg="http://www.w3.org/2000/svg" display="inherit">
 <g class="layer">
  <title>Layer 1</title>
  <path d="m12.5,6.44l0,-0.5c0.86,-0.23 1.5,-1.01 1.5,-1.94c0,-1.1 -0.9,-2 -2,-2s-2,0.9 -2,2l1,0c0,-0.55 0.45,-1 1,-1s1,0.45 1,1s-0.45,1 -1,1l-0.5,0l0,1.44l-7.5,6.56l2,0l0,6l1,0l0,2l1,0l0,-2l2,0l0,3l1,0l0,-3l2,0l0,2l1,0l0,-2l1,0l0,-3l3,0l0,-3l2,0l-7.5,-6.56zm-5.84,5.56l5.34,-4.67l5.34,4.67l-10.68,0zm7.34,6l-7,0l0,-5l7,0l0,5zm1,-3l0,-2l2,0l0,2l-2,0z" fill="#ffffff" id="svg_1"/>
 </g>
</svg>