<?xml version="1.0"?>
<svg width="24" height="24" xmlns="http://www.w3.org/2000/svg" xmlns:svg="http://www.w3.org/2000/svg" display="inherit">
 <g class="layer">
  <title>Layer 1</title>
  <g id="svg_1">
   <path d="m14.97,16.95l-4.97,-3.08l0,-6.87l2,0l0,5.76l4.03,2.49l-1.06,1.7zm7.03,-4.95c0,5.51 -4.49,10 -10,10s-10,-4.49 -10,-10l1,0c0,4.96 4.04,9 9,9s9,-4.04 9,-9s-4.04,-9 -9,-9c-3.19,0 -6.08,1.64 -7.72,4.38c-0.11,0.18 -0.22,0.37 -0.31,0.56l-0.03,0.06l4.06,0l0,1l-6.04,0l0,-6l1,0l0,4.74c0.04,-0.09 0.07,-0.17 0.11,-0.25c0.11,-0.22 0.23,-0.42 0.35,-0.63c1.8,-3 5.09,-4.86 8.58,-4.86c5.51,0 10,4.49 10,10z" fill="#ffffff" id="svg_2"/>
  </g>
 </g>
</svg>