<?xml version="1.0"?>
<svg width="24" height="24" xmlns="http://www.w3.org/2000/svg" xmlns:svg="http://www.w3.org/2000/svg" display="inherit" enable-background="new 0 0 24 24">
 <g class="layer">
  <title>Layer 1</title>
  <path d="m18.77,11l-4.23,0l1.52,-4.94c0.32,-1.03 -0.52,-2.06 -1.68,-2.06c-0.58,0 -1.14,0.24 -1.52,0.65l-5.86,6.35l-4,0l0,10l4,0l1,0l9.43,0c1.06,0 1.98,-0.67 2.19,-1.61l1.34,-6c0.27,-1.24 -0.78,-2.39 -2.19,-2.39zm-11.77,9l-3,0l0,-8l3,0l0,8zm12.98,-6.83l-1.34,6c-0.1,0.48 -0.61,0.83 -1.21,0.83l-9.43,0l0,-8.61l5.6,-6.06c0.19,-0.21 0.48,-0.33 0.78,-0.33c0.26,0 0.5,0.11 0.63,0.3c0.07,0.1 0.15,0.26 0.09,0.47l-1.52,4.94l-0.4,1.29l1.35,0l4.23,0c0.41,0 0.8,0.17 1.03,0.46c0.13,0.15 0.26,0.4 0.19,0.71z" fill="#ffffff" id="svg_1"/>
 </g>
</svg>