<?xml version="1.0"?>
<svg width="24" height="24" xmlns="http://www.w3.org/2000/svg" xmlns:svg="http://www.w3.org/2000/svg" display="inherit" enable-background="new 0 0 24 24">
 <g class="layer">
  <title>Layer 1</title>
  <path d="m11,11l0,6l-4,0l0,-6l4,0m1,-1l-6,0l0,8l6,0l0,-8zm-9,-6.97l0,17.97l14,0l4,-4l0,-13.97m-1,0.97l0,11.99l-0.01,0.01l-3.99,0l0,3.99l-0.01,0.01l-11.99,0l0,-16l16,0zm-2,4l-12,0l0,-2l12,0l0,2zm0,7l-5,0l0,-2l5,0l0,2zm0,-3l-5,0l0,-2l5,0l0,2z" fill="#ffffff" id="svg_1"/>
 </g>
</svg>