<?xml version="1.0"?>
<svg width="24" height="24" xmlns="http://www.w3.org/2000/svg" xmlns:svg="http://www.w3.org/2000/svg" display="inherit" enable-background="new 0 0 24 24">
 <g class="layer">
  <title>Layer 1</title>
  <path d="m6,12c0,-3.31 2.69,-6 6,-6s6,2.69 6,6c0,1.66 -0.67,3.16 -1.77,4.25l-0.71,-0.71c0.92,-0.91 1.48,-2.16 1.48,-3.54c0,-2.76 -2.24,-5 -5,-5s-5,2.24 -5,5c0,1.38 0.56,2.63 1.47,3.54l-0.71,0.71c-1.09,-1.09 -1.76,-2.59 -1.76,-4.25zm8,0c0,-1.1 -0.9,-2 -2,-2s-2,0.9 -2,2c0,0.74 0.4,1.38 1,1.72l0,8.28l2,0l0,-8.28c0.6,-0.34 1,-0.98 1,-1.72zm-9.06,7.08l0.71,-0.71c-1.64,-1.63 -2.65,-3.88 -2.65,-6.37c0,-4.96 4.04,-9 9,-9s9,4.04 9,9c0,2.49 -1.01,4.74 -2.65,6.37l0.71,0.71c1.82,-1.81 2.94,-4.31 2.94,-7.08c0,-5.52 -4.48,-10 -10,-10s-10,4.48 -10,10c0,2.77 1.12,5.27 2.94,7.08z" fill="#ffffff" id="svg_1"/>
 </g>
</svg>