<?xml version="1.0"?>
<svg width="24" height="24" xmlns="http://www.w3.org/2000/svg" xmlns:svg="http://www.w3.org/2000/svg" display="inherit">
 <g class="layer">
  <title>Layer 1</title>
  <path d="m7,8c0,2.76 2.24,5 5,5s5,-2.24 5,-5l-1,0c0,2.21 -1.79,4 -4,4s-4,-1.79 -4,-4l-1,0zm9.9,-2c-0.46,-2.28 -2.48,-4 -4.9,-4s-4.44,1.72 -4.9,4l-3.1,0l0,14c0,1.1 0.9,2 2,2l12,0c1.1,0 2,-0.9 2,-2l0,-14l-3.1,0zm-4.9,-3c1.86,0 3.43,1.27 3.87,3l-7.74,0c0.44,-1.73 2.01,-3 3.87,-3zm7,17c0,0.55 -0.45,1 -1,1l-12,0c-0.55,0 -1,-0.45 -1,-1l0,-13l14,0l0,13z" fill="#ffffff" id="svg_1"/>
 </g>
</svg>