<?xml version="1.0"?>
<svg width="24" height="24" xmlns="http://www.w3.org/2000/svg" xmlns:svg="http://www.w3.org/2000/svg" display="inherit" enable-background="new 0 0 24 24">
 <g class="layer">
  <title>Layer 1</title>
  <path d="m19,3.87l0,9.77c0,4.06 -3.14,7.36 -7,7.36s-7,-3.3 -7,-7.37l0,-0.13c0,-1.06 0.22,-2.13 0.62,-3.09c0.5,-1.19 1.29,-2.21 2.27,-2.97c0.85,-0.66 1.83,-1.14 2.87,-1.65c0.39,-0.19 0.77,-0.38 1.15,-0.58c0.36,-0.19 0.72,-0.38 1.08,-0.56l0,3.22l1.55,-1.04l4.46,-2.96m1,-1.87l-6,4l0,-3c-0.85,0.44 -1.7,0.88 -2.55,1.33c-1.41,0.74 -2.9,1.34 -4.17,2.32c-1.13,0.87 -2.02,2.05 -2.58,3.37c-0.46,1.09 -0.7,2.29 -0.7,3.48l0,0.14c0,4.62 3.58,8.36 8,8.36s8,-3.74 8,-8.36l0,-11.64zm-10.55,10.89l4.55,-2.89l0,5.7c0,1.82 -1.34,3.3 -3,3.3s-3,-1.47 -3,-3.3c0,-1.19 0.58,-2.23 1.45,-2.81z" fill="#ffffff" id="svg_1"/>
 </g>
</svg>