<?xml version="1.0"?>
<svg width="24" height="24" xmlns="http://www.w3.org/2000/svg" xmlns:svg="http://www.w3.org/2000/svg" display="inherit">
 <g class="layer">
  <title>Layer 1</title>
  <path d="m4,20l14,0l0,1l-15,0l0,-15l1,0l0,14zm2,-17l0,15l15,0l0,-15l-15,0zm2.02,14c0.36,-2.13 1.93,-4.1 5.48,-4.1s5.12,1.97 5.48,4.1l-10.96,0zm2.98,-8.5a2.5,2.5 0 0 1 5,0a2.5,2.5 0 0 1 -5,0zm3.21,3.43a3.51,3.51 0 0 0 2.79,-3.43c0,-1.93 -1.57,-3.5 -3.5,-3.5s-3.5,1.57 -3.5,3.5c0,1.69 1.2,3.1 2.79,3.43c-3.48,0.26 -5.4,2.42 -5.78,5.07l-0.01,0l0,-13l13,0l0,13l-0.01,0c-0.38,-2.65 -2.31,-4.81 -5.78,-5.07z" fill="#ffffff" id="svg_1"/>
 </g>
</svg>