<?xml version="1.0"?>
<svg width="90" height="20" xmlns="http://www.w3.org/2000/svg" xmlns:svg="http://www.w3.org/2000/svg" preserveAspectRatio="xMidYMid meet">
 <g class="layer">
  <title>Layer 1</title>
  <g id="svg_1">
   <path d="m27.97,3.12c-0.33,-1.23 -1.29,-2.19 -2.52,-2.52c-2.23,-0.6 -11.16,-0.6 -11.16,-0.6c0,0 -8.94,0 -11.17,0.6c-1.23,0.33 -2.19,1.29 -2.52,2.52c-0.6,2.23 -0.6,6.88 -0.6,6.88c0,0 0,4.65 0.6,6.88c0.33,1.23 1.29,2.19 2.52,2.52c2.23,0.6 11.17,0.6 11.17,0.6c0,0 8.93,0 11.16,-0.6c1.23,-0.33 2.19,-1.29 2.52,-2.52c0.6,-2.23 0.6,-6.88 0.6,-6.88c0,0 0,-4.65 -0.6,-6.88z" fill="#FF0000" id="svg_2"/>
   <path d="m11.43,14.29l7.42,-4.29l-7.42,-4.28l0,8.57z" fill="white" id="svg_3"/>
  </g>
  <g id="svg_4">
   <g id="youtube-paths_yt6">
    <path d="m34.6,13l-3.21,-11.58l2.8,0l1.13,5.25c0.28,1.29 0.49,2.4 0.63,3.31l0.08,0c0.1,-0.65 0.31,-1.75 0.63,-3.29l1.17,-5.27l2.8,0l-3.25,11.58l0,5.56l-2.78,0l0,-5.56l0,0z" fill="#ffffff" id="svg_5"/>
    <path d="m41.47,18.19c-0.56,-0.38 -0.97,-0.97 -1.21,-1.77c-0.23,-0.81 -0.35,-1.88 -0.35,-3.21l0,-1.82c0,-1.35 0.13,-2.43 0.4,-3.25c0.28,-0.81 0.7,-1.41 1.28,-1.79c0.58,-0.37 1.34,-0.56 2.28,-0.56c0.93,0 1.67,0.19 2.23,0.57c0.56,0.38 0.96,0.98 1.22,1.79c0.26,0.81 0.39,1.89 0.39,3.24l0,1.82c0,1.33 -0.13,2.41 -0.38,3.22c-0.25,0.81 -0.66,1.4 -1.22,1.77c-0.57,0.38 -1.33,0.57 -2.3,0.57c-1,0 -1.78,-0.2 -2.34,-0.58zm3.17,-1.96c0.15,-0.41 0.23,-1.07 0.23,-2l0,-3.9c0,-0.9 -0.08,-1.56 -0.23,-1.97c-0.16,-0.42 -0.44,-0.62 -0.83,-0.62c-0.38,0 -0.65,0.2 -0.81,0.62c-0.16,0.41 -0.23,1.07 -0.23,1.97l0,3.9c0,0.93 0.07,1.6 0.22,2c0.15,0.41 0.42,0.62 0.82,0.62c0.39,0 0.67,-0.21 0.83,-0.62z" fill="#ffffff" id="svg_6"/>
    <path d="m56.82,18.56l-2.21,0l-0.25,-1.53l-0.06,0c-0.6,1.16 -1.49,1.74 -2.69,1.74c-0.83,0 -1.45,-0.28 -1.84,-0.82c-0.4,-0.55 -0.6,-1.4 -0.6,-2.55l0,-9.36l2.82,0l0,9.19c0,0.56 0.07,0.96 0.19,1.2c0.12,0.23 0.32,0.35 0.61,0.35c0.25,0 0.48,-0.07 0.71,-0.22c0.22,-0.15 0.39,-0.34 0.5,-0.57l0,-9.95l2.82,0l0,12.52z" fill="#ffffff" id="svg_7"/>
    <path d="m64.48,3.69l-2.8,0l0,14.87l-2.76,0l0,-14.87l-2.8,0l0,-2.27l8.36,0l0,2.27z" fill="#ffffff" id="svg_8"/>
    <path d="m71.28,18.56l-2.21,0l-0.24,-1.53l-0.06,0c-0.6,1.16 -1.5,1.74 -2.7,1.74c-0.83,0 -1.45,-0.28 -1.84,-0.82c-0.4,-0.55 -0.59,-1.4 -0.59,-2.55l0,-9.36l2.82,0l0,9.19c0,0.56 0.06,0.96 0.18,1.2c0.12,0.23 0.33,0.35 0.61,0.35c0.25,0 0.48,-0.07 0.71,-0.22c0.22,-0.15 0.39,-0.34 0.5,-0.57l0,-9.95l2.82,0l0,12.52z" fill="#ffffff" id="svg_9"/>
    <path d="m80.61,8.04c-0.17,-0.79 -0.45,-1.36 -0.83,-1.72c-0.38,-0.35 -0.9,-0.53 -1.57,-0.53c-0.52,0 -1,0.15 -1.45,0.44c-0.45,0.29 -0.8,0.68 -1.05,1.15l-0.02,0l0,-6.59l-2.71,0l0,17.77l2.33,0l0.28,-1.18l0.06,0c0.22,0.42 0.55,0.75 0.98,1c0.44,0.24 0.92,0.36 1.46,0.36c0.95,0 1.65,-0.44 2.1,-1.31c0.45,-0.88 0.68,-2.25 0.68,-4.12l0,-1.98c0,-1.4 -0.09,-2.5 -0.26,-3.29zm-2.59,5.11c0,0.91 -0.03,1.63 -0.11,2.14c-0.07,0.52 -0.2,0.89 -0.38,1.11c-0.17,0.22 -0.41,0.32 -0.71,0.32c-0.24,0 -0.45,-0.05 -0.65,-0.16c-0.19,-0.11 -0.35,-0.27 -0.48,-0.49l0,-7.11c0.1,-0.34 0.26,-0.62 0.5,-0.84c0.23,-0.22 0.48,-0.32 0.75,-0.32c0.29,0 0.51,0.11 0.66,0.33c0.16,0.23 0.27,0.6 0.33,1.14c0.06,0.53 0.09,1.28 0.09,2.26l0,1.62l0,0z" fill="#ffffff" id="svg_10"/>
    <path d="m84.87,13.87c0,0.81 0.02,1.41 0.07,1.81c0.04,0.4 0.14,0.69 0.29,0.88c0.15,0.18 0.38,0.27 0.7,0.27c0.42,0 0.71,-0.16 0.86,-0.49c0.16,-0.32 0.25,-0.87 0.26,-1.63l2.43,0.14c0.02,0.11 0.02,0.26 0.02,0.45c0,1.16 -0.31,2.02 -0.95,2.6c-0.63,0.57 -1.53,0.85 -2.68,0.85c-1.39,0 -2.37,-0.43 -2.92,-1.3c-0.56,-0.88 -0.84,-2.22 -0.84,-4.05l0,-2.19c0,-1.88 0.29,-3.25 0.87,-4.11c0.58,-0.87 1.57,-1.3 2.97,-1.3c0.97,0 1.71,0.17 2.23,0.53c0.51,0.35 0.88,0.9 1.09,1.65c0.21,0.75 0.32,1.79 0.32,3.11l0,2.15l-4.72,0l0,0.63zm0.35,-5.9c-0.14,0.17 -0.23,0.46 -0.28,0.87c-0.05,0.4 -0.07,1.01 -0.07,1.83l0,0.89l2.06,0l0,-0.89c0,-0.81 -0.03,-1.42 -0.08,-1.83c-0.06,-0.42 -0.16,-0.71 -0.3,-0.88c-0.14,-0.17 -0.36,-0.26 -0.66,-0.26c-0.3,0 -0.53,0.09 -0.67,0.27z" fill="#ffffff" id="svg_11"/>
   </g>
  </g>
 </g>
</svg>